<svg width="252" height="50" viewBox="0 0 252 50" fill="none" xmlns="http://www.w3.org/2000/svg">
<path d="M0 5C0 2.23858 2.23858 0 5 0H247C249.761 0 252 2.23858 252 5V45C252 47.7614 249.761 50 247 50H5C2.23857 50 0 47.7614 0 45V5Z" fill="#FFA500" fill-opacity="0.94"/>
<path d="M78.231 21.576L75.243 30H72.675L69.687 21.576H71.871L73.959 27.936L76.059 21.576H78.231ZM78.6806 26.64C78.6806 25.952 78.8086 25.348 79.0646 24.828C79.3286 24.308 79.6846 23.908 80.1326 23.628C80.5806 23.348 81.0806 23.208 81.6326 23.208C82.1046 23.208 82.5166 23.304 82.8686 23.496C83.2286 23.688 83.5046 23.94 83.6966 24.252V23.304H85.7486V30H83.6966V29.052C83.4966 29.364 83.2166 29.616 82.8566 29.808C82.5046 30 82.0926 30.096 81.6206 30.096C81.0766 30.096 80.5806 29.956 80.1326 29.676C79.6846 29.388 79.3286 28.984 79.0646 28.464C78.8086 27.936 78.6806 27.328 78.6806 26.64ZM83.6966 26.652C83.6966 26.14 83.5526 25.736 83.2646 25.44C82.9846 25.144 82.6406 24.996 82.2326 24.996C81.8246 24.996 81.4766 25.144 81.1886 25.44C80.9086 25.728 80.7686 26.128 80.7686 26.64C80.7686 27.152 80.9086 27.56 81.1886 27.864C81.4766 28.16 81.8246 28.308 82.2326 28.308C82.6406 28.308 82.9846 28.16 83.2646 27.864C83.5526 27.568 83.6966 27.164 83.6966 26.652ZM95.7772 23.232C96.6092 23.232 97.2692 23.484 97.7572 23.988C98.2532 24.492 98.5012 25.192 98.5012 26.088V30H96.4612V26.364C96.4612 25.932 96.3452 25.6 96.1132 25.368C95.8892 25.128 95.5772 25.008 95.1772 25.008C94.7772 25.008 94.4612 25.128 94.2292 25.368C94.0052 25.6 93.8932 25.932 93.8932 26.364V30H91.8532V26.364C91.8532 25.932 91.7372 25.6 91.5052 25.368C91.2812 25.128 90.9692 25.008 90.5692 25.008C90.1692 25.008 89.8532 25.128 89.6212 25.368C89.3972 25.6 89.2852 25.932 89.2852 26.364V30H87.2332V23.304H89.2852V24.144C89.4932 23.864 89.7652 23.644 90.1012 23.484C90.4372 23.316 90.8172 23.232 91.2412 23.232C91.7452 23.232 92.1932 23.34 92.5852 23.556C92.9852 23.772 93.2972 24.08 93.5212 24.48C93.7532 24.112 94.0692 23.812 94.4692 23.58C94.8692 23.348 95.3052 23.232 95.7772 23.232ZM102.984 30.096C102.328 30.096 101.736 29.956 101.208 29.676C100.688 29.396 100.276 28.996 99.9723 28.476C99.6763 27.956 99.5283 27.348 99.5283 26.652C99.5283 25.964 99.6803 25.36 99.9843 24.84C100.288 24.312 100.704 23.908 101.232 23.628C101.76 23.348 102.352 23.208 103.008 23.208C103.664 23.208 104.256 23.348 104.784 23.628C105.312 23.908 105.728 24.312 106.032 24.84C106.336 25.36 106.488 25.964 106.488 26.652C106.488 27.34 106.332 27.948 106.02 28.476C105.716 28.996 105.296 29.396 104.76 29.676C104.232 29.956 103.64 30.096 102.984 30.096ZM102.984 28.32C103.376 28.32 103.708 28.176 103.98 27.888C104.26 27.6 104.4 27.188 104.4 26.652C104.4 26.116 104.264 25.704 103.992 25.416C103.728 25.128 103.4 24.984 103.008 24.984C102.608 24.984 102.276 25.128 102.012 25.416C101.748 25.696 101.616 26.108 101.616 26.652C101.616 27.188 101.744 27.6 102 27.888C102.264 28.176 102.592 28.32 102.984 28.32ZM110.301 30.096C109.717 30.096 109.197 29.996 108.741 29.796C108.285 29.596 107.925 29.324 107.661 28.98C107.397 28.628 107.249 28.236 107.217 27.804H109.245C109.269 28.036 109.377 28.224 109.569 28.368C109.761 28.512 109.997 28.584 110.277 28.584C110.533 28.584 110.729 28.536 110.865 28.44C111.009 28.336 111.081 28.204 111.081 28.044C111.081 27.852 110.981 27.712 110.781 27.624C110.581 27.528 110.257 27.424 109.809 27.312C109.329 27.2 108.929 27.084 108.609 26.964C108.289 26.836 108.013 26.64 107.781 26.376C107.549 26.104 107.433 25.74 107.433 25.284C107.433 24.9 107.537 24.552 107.745 24.24C107.961 23.92 108.273 23.668 108.681 23.484C109.097 23.3 109.589 23.208 110.157 23.208C110.997 23.208 111.657 23.416 112.137 23.832C112.625 24.248 112.905 24.8 112.977 25.488H111.081C111.049 25.256 110.945 25.072 110.769 24.936C110.601 24.8 110.377 24.732 110.097 24.732C109.857 24.732 109.673 24.78 109.545 24.876C109.417 24.964 109.353 25.088 109.353 25.248C109.353 25.44 109.453 25.584 109.653 25.68C109.861 25.776 110.181 25.872 110.613 25.968C111.109 26.096 111.513 26.224 111.825 26.352C112.137 26.472 112.409 26.672 112.641 26.952C112.881 27.224 113.005 27.592 113.013 28.056C113.013 28.448 112.901 28.8 112.677 29.112C112.461 29.416 112.145 29.656 111.729 29.832C111.321 30.008 110.845 30.096 110.301 30.096ZM116.403 26.652C116.403 25.956 116.543 25.348 116.823 24.828C117.111 24.308 117.507 23.908 118.011 23.628C118.523 23.348 119.107 23.208 119.763 23.208C120.603 23.208 121.303 23.428 121.863 23.868C122.431 24.308 122.803 24.928 122.979 25.728H120.795C120.611 25.216 120.255 24.96 119.727 24.96C119.351 24.96 119.051 25.108 118.827 25.404C118.603 25.692 118.491 26.108 118.491 26.652C118.491 27.196 118.603 27.616 118.827 27.912C119.051 28.2 119.351 28.344 119.727 28.344C120.255 28.344 120.611 28.088 120.795 27.576H122.979C122.803 28.36 122.431 28.976 121.863 29.424C121.295 29.872 120.595 30.096 119.763 30.096C119.107 30.096 118.523 29.956 118.011 29.676C117.507 29.396 117.111 28.996 116.823 28.476C116.543 27.956 116.403 27.348 116.403 26.652ZM127.125 30.096C126.469 30.096 125.877 29.956 125.349 29.676C124.829 29.396 124.417 28.996 124.113 28.476C123.817 27.956 123.669 27.348 123.669 26.652C123.669 25.964 123.821 25.36 124.125 24.84C124.429 24.312 124.845 23.908 125.373 23.628C125.901 23.348 126.493 23.208 127.149 23.208C127.805 23.208 128.397 23.348 128.925 23.628C129.453 23.908 129.869 24.312 130.173 24.84C130.477 25.36 130.629 25.964 130.629 26.652C130.629 27.34 130.473 27.948 130.161 28.476C129.857 28.996 129.437 29.396 128.901 29.676C128.373 29.956 127.781 30.096 127.125 30.096ZM127.125 28.32C127.517 28.32 127.849 28.176 128.121 27.888C128.401 27.6 128.541 27.188 128.541 26.652C128.541 26.116 128.405 25.704 128.133 25.416C127.869 25.128 127.541 24.984 127.149 24.984C126.749 24.984 126.417 25.128 126.153 25.416C125.889 25.696 125.757 26.108 125.757 26.652C125.757 27.188 125.885 27.6 126.141 27.888C126.405 28.176 126.733 28.32 127.125 28.32ZM135.798 23.232C136.582 23.232 137.206 23.488 137.67 24C138.142 24.504 138.378 25.2 138.378 26.088V30H136.338V26.364C136.338 25.916 136.222 25.568 135.99 25.32C135.758 25.072 135.446 24.948 135.054 24.948C134.662 24.948 134.35 25.072 134.118 25.32C133.886 25.568 133.77 25.916 133.77 26.364V30H131.718V23.304H133.77V24.192C133.978 23.896 134.258 23.664 134.61 23.496C134.962 23.32 135.358 23.232 135.798 23.232ZM142.815 28.08L144.267 23.304H146.451L144.075 30H141.543L139.167 23.304H141.363L142.815 28.08ZM153.627 26.544C153.627 26.736 153.615 26.936 153.591 27.144H148.947C148.979 27.56 149.111 27.88 149.343 28.104C149.583 28.32 149.875 28.428 150.219 28.428C150.731 28.428 151.087 28.212 151.287 27.78H153.471C153.359 28.22 153.155 28.616 152.859 28.968C152.571 29.32 152.207 29.596 151.767 29.796C151.327 29.996 150.835 30.096 150.291 30.096C149.635 30.096 149.051 29.956 148.539 29.676C148.027 29.396 147.627 28.996 147.339 28.476C147.051 27.956 146.907 27.348 146.907 26.652C146.907 25.956 147.047 25.348 147.327 24.828C147.615 24.308 148.015 23.908 148.527 23.628C149.039 23.348 149.627 23.208 150.291 23.208C150.939 23.208 151.515 23.344 152.019 23.616C152.523 23.888 152.915 24.276 153.195 24.78C153.483 25.284 153.627 25.872 153.627 26.544ZM151.527 26.004C151.527 25.652 151.407 25.372 151.167 25.164C150.927 24.956 150.627 24.852 150.267 24.852C149.923 24.852 149.631 24.952 149.391 25.152C149.159 25.352 149.015 25.636 148.959 26.004H151.527ZM156.762 24.42C157.002 24.052 157.302 23.764 157.662 23.556C158.022 23.34 158.422 23.232 158.862 23.232V25.404H158.298C157.786 25.404 157.402 25.516 157.146 25.74C156.89 25.956 156.762 26.34 156.762 26.892V30H154.71V23.304H156.762V24.42ZM162.567 30.096C161.983 30.096 161.463 29.996 161.007 29.796C160.551 29.596 160.191 29.324 159.927 28.98C159.663 28.628 159.515 28.236 159.483 27.804H161.511C161.535 28.036 161.643 28.224 161.835 28.368C162.027 28.512 162.263 28.584 162.543 28.584C162.799 28.584 162.995 28.536 163.131 28.44C163.275 28.336 163.347 28.204 163.347 28.044C163.347 27.852 163.247 27.712 163.047 27.624C162.847 27.528 162.523 27.424 162.075 27.312C161.595 27.2 161.195 27.084 160.875 26.964C160.555 26.836 160.279 26.64 160.047 26.376C159.815 26.104 159.699 25.74 159.699 25.284C159.699 24.9 159.803 24.552 160.011 24.24C160.227 23.92 160.539 23.668 160.947 23.484C161.363 23.3 161.855 23.208 162.423 23.208C163.263 23.208 163.923 23.416 164.403 23.832C164.891 24.248 165.171 24.8 165.243 25.488H163.347C163.315 25.256 163.211 25.072 163.035 24.936C162.867 24.8 162.643 24.732 162.363 24.732C162.123 24.732 161.939 24.78 161.811 24.876C161.683 24.964 161.619 25.088 161.619 25.248C161.619 25.44 161.719 25.584 161.919 25.68C162.127 25.776 162.447 25.872 162.879 25.968C163.375 26.096 163.779 26.224 164.091 26.352C164.403 26.472 164.675 26.672 164.907 26.952C165.147 27.224 165.271 27.592 165.279 28.056C165.279 28.448 165.167 28.8 164.943 29.112C164.727 29.416 164.411 29.656 163.995 29.832C163.587 30.008 163.111 30.096 162.567 30.096ZM166.126 26.64C166.126 25.952 166.254 25.348 166.51 24.828C166.774 24.308 167.13 23.908 167.578 23.628C168.026 23.348 168.526 23.208 169.078 23.208C169.55 23.208 169.962 23.304 170.314 23.496C170.674 23.688 170.95 23.94 171.142 24.252V23.304H173.194V30H171.142V29.052C170.942 29.364 170.662 29.616 170.302 29.808C169.95 30 169.538 30.096 169.066 30.096C168.522 30.096 168.026 29.956 167.578 29.676C167.13 29.388 166.774 28.984 166.51 28.464C166.254 27.936 166.126 27.328 166.126 26.64ZM171.142 26.652C171.142 26.14 170.998 25.736 170.71 25.44C170.43 25.144 170.086 24.996 169.678 24.996C169.27 24.996 168.922 25.144 168.634 25.44C168.354 25.728 168.214 26.128 168.214 26.64C168.214 27.152 168.354 27.56 168.634 27.864C168.922 28.16 169.27 28.308 169.678 28.308C170.086 28.308 170.43 28.16 170.71 27.864C170.998 27.568 171.142 27.164 171.142 26.652ZM176.73 24.42C176.97 24.052 177.27 23.764 177.63 23.556C177.99 23.34 178.39 23.232 178.83 23.232V25.404H178.266C177.754 25.404 177.37 25.516 177.114 25.74C176.858 25.956 176.73 26.34 176.73 26.892V30H174.678V23.304H176.73V24.42ZM184.406 24.252C184.606 23.94 184.882 23.688 185.234 23.496C185.586 23.304 185.998 23.208 186.47 23.208C187.022 23.208 187.522 23.348 187.97 23.628C188.418 23.908 188.77 24.308 189.026 24.828C189.29 25.348 189.422 25.952 189.422 26.64C189.422 27.328 189.29 27.936 189.026 28.464C188.77 28.984 188.418 29.388 187.97 29.676C187.522 29.956 187.022 30.096 186.47 30.096C186.006 30.096 185.594 30 185.234 29.808C184.882 29.616 184.606 29.368 184.406 29.064V33.192H182.354V23.304H184.406V24.252ZM187.334 26.64C187.334 26.128 187.19 25.728 186.902 25.44C186.622 25.144 186.274 24.996 185.858 24.996C185.45 24.996 185.102 25.144 184.814 25.44C184.534 25.736 184.394 26.14 184.394 26.652C184.394 27.164 184.534 27.568 184.814 27.864C185.102 28.16 185.45 28.308 185.858 28.308C186.266 28.308 186.614 28.16 186.902 27.864C187.19 27.56 187.334 27.152 187.334 26.64ZM193.547 30.096C192.891 30.096 192.299 29.956 191.771 29.676C191.251 29.396 190.839 28.996 190.535 28.476C190.239 27.956 190.091 27.348 190.091 26.652C190.091 25.964 190.243 25.36 190.547 24.84C190.851 24.312 191.267 23.908 191.795 23.628C192.323 23.348 192.915 23.208 193.571 23.208C194.227 23.208 194.819 23.348 195.347 23.628C195.875 23.908 196.291 24.312 196.595 24.84C196.899 25.36 197.051 25.964 197.051 26.652C197.051 27.34 196.895 27.948 196.583 28.476C196.279 28.996 195.859 29.396 195.323 29.676C194.795 29.956 194.203 30.096 193.547 30.096ZM193.547 28.32C193.939 28.32 194.271 28.176 194.543 27.888C194.823 27.6 194.963 27.188 194.963 26.652C194.963 26.116 194.827 25.704 194.555 25.416C194.291 25.128 193.963 24.984 193.571 24.984C193.171 24.984 192.839 25.128 192.575 25.416C192.311 25.696 192.179 26.108 192.179 26.652C192.179 27.188 192.307 27.6 192.563 27.888C192.827 28.176 193.155 28.32 193.547 28.32ZM200.191 24.42C200.431 24.052 200.731 23.764 201.091 23.556C201.451 23.34 201.851 23.232 202.291 23.232V25.404H201.727C201.215 25.404 200.831 25.516 200.575 25.74C200.319 25.956 200.191 26.34 200.191 26.892V30H198.139V23.304H200.191V24.42ZM205.407 26.652C205.407 25.956 205.547 25.348 205.827 24.828C206.115 24.308 206.511 23.908 207.015 23.628C207.527 23.348 208.111 23.208 208.767 23.208C209.607 23.208 210.307 23.428 210.867 23.868C211.435 24.308 211.807 24.928 211.983 25.728H209.799C209.615 25.216 209.259 24.96 208.731 24.96C208.355 24.96 208.055 25.108 207.831 25.404C207.607 25.692 207.495 26.108 207.495 26.652C207.495 27.196 207.607 27.616 207.831 27.912C208.055 28.2 208.355 28.344 208.731 28.344C209.259 28.344 209.615 28.088 209.799 27.576H211.983C211.807 28.36 211.435 28.976 210.867 29.424C210.299 29.872 209.599 30.096 208.767 30.096C208.111 30.096 207.527 29.956 207.015 29.676C206.511 29.396 206.115 28.996 205.827 28.476C205.547 27.956 205.407 27.348 205.407 26.652ZM217.197 23.232C217.965 23.232 218.581 23.488 219.045 24C219.509 24.504 219.741 25.2 219.741 26.088V30H217.701V26.364C217.701 25.916 217.585 25.568 217.353 25.32C217.121 25.072 216.809 24.948 216.417 24.948C216.025 24.948 215.713 25.072 215.481 25.32C215.249 25.568 215.133 25.916 215.133 26.364V30H213.081V21.12H215.133V24.204C215.341 23.908 215.625 23.672 215.985 23.496C216.345 23.32 216.749 23.232 217.197 23.232ZM220.759 26.64C220.759 25.952 220.887 25.348 221.143 24.828C221.407 24.308 221.763 23.908 222.211 23.628C222.659 23.348 223.159 23.208 223.711 23.208C224.183 23.208 224.595 23.304 224.947 23.496C225.307 23.688 225.583 23.94 225.775 24.252V23.304H227.827V30H225.775V29.052C225.575 29.364 225.295 29.616 224.935 29.808C224.583 30 224.171 30.096 223.699 30.096C223.155 30.096 222.659 29.956 222.211 29.676C221.763 29.388 221.407 28.984 221.143 28.464C220.887 27.936 220.759 27.328 220.759 26.64ZM225.775 26.652C225.775 26.14 225.631 25.736 225.343 25.44C225.063 25.144 224.719 24.996 224.311 24.996C223.903 24.996 223.555 25.144 223.267 25.44C222.987 25.728 222.847 26.128 222.847 26.64C222.847 27.152 222.987 27.56 223.267 27.864C223.555 28.16 223.903 28.308 224.311 28.308C224.719 28.308 225.063 28.16 225.343 27.864C225.631 27.568 225.775 27.164 225.775 26.652ZM233.043 28.26V30H231.999C231.255 30 230.675 29.82 230.259 29.46C229.843 29.092 229.635 28.496 229.635 27.672V25.008H228.819V23.304H229.635V21.672H231.687V23.304H233.031V25.008H231.687V27.696C231.687 27.896 231.735 28.04 231.831 28.128C231.927 28.216 232.087 28.26 232.311 28.26H233.043Z" fill="white"/>
<ellipse cx="40.0107" cy="26" rx="17.5" ry="16" fill="white"/>
<path d="M22.9426 43.5437L28.4039 28.4817L36.9648 35.7935L22.9426 43.5437Z" fill="white"/>
<path d="M34.5107 22H46.5107V24H34.5107V22Z" fill="#FFA500"/>
<rect x="34.5107" y="28" width="12" height="2" fill="#FFA500"/>
</svg>
